# xmcd CD database file
#
# Track frame offsets:
#	150
#	12277
#	25832
#	38082
#	51118
#	66651
#	79928
#	97098
#	109675
#	123299
#	143892
#	154712
#
# Disc length: 2226 seconds
#
# Revision: 0
# Processed by: cddbd v1.5.2PL0 Copyright (c) Steve Scherf et al.
# Submitted via: CDex 1.51
#
DISCID=9e08b00c
DTITLE=Michael Thomason Band - 100% Chance of Tears
DYEAR=2010
DGENRE=Country
TTITLE0=Ringing My Bell
TTITLE1=Take Me Back
TTITLE2=Shine, Shave, Shower
TTITLE3=I Do It All For You
TTITLE4=Making Love, Catching Fish
TTITLE5=Mobile Phone Blues
TTITLE6=A Library Lost
TTITLE7=100% Chance of Tears
TTITLE8=She Rocks Me
TTITLE9=Work With Me
TTITLE10=Juila
TTITLE11=California
EXTD=YEAR: 2010
EXTT0=
EXTT1=
EXTT2=
EXTT3=
EXTT4=
EXTT5=
EXTT6=
EXTT7=
EXTT8=
EXTT9=
EXTT10=
EXTT11=
PLAYORDER=
